<svg width="30" height="30" viewBox="0 0 30 30" fill="none" xmlns="http://www.w3.org/2000/svg">
<path fill-rule="evenodd" clip-rule="evenodd" d="M15 16.6667C19.6042 16.6667 23.3333 12.9375 23.3333 8.33333C23.3333 3.72917 19.6042 0 15 0C10.3958 0 6.66667 3.72917 6.66667 8.33333C6.66667 12.9375 10.3958 16.6667 15 16.6667ZM21.6667 8.33333C21.6667 12.0167 18.6833 15 15 15C11.3167 15 8.33333 12.0167 8.33333 8.33333C8.33333 4.65 11.3167 1.66667 15 1.66667C18.6833 1.66667 21.6667 4.65 21.6667 8.33333ZM19.1958 18.2283L16.6667 25.4533V25L16.1875 21.6492C16.3405 21.6169 16.4813 21.5423 16.5939 21.4339C16.7064 21.3254 16.7863 21.1875 16.8242 21.0358L17.2408 19.3692C17.2716 19.2464 17.274 19.1182 17.2478 18.9943C17.2216 18.8704 17.1675 18.7542 17.0897 18.6543C17.0119 18.5545 16.9123 18.4737 16.7986 18.4181C16.6848 18.3624 16.5599 18.3335 16.4333 18.3333H13.5683C13.4418 18.3334 13.3168 18.3622 13.2031 18.4178C13.0893 18.4733 12.9897 18.554 12.9118 18.6537C12.8339 18.7535 12.7797 18.8697 12.7534 18.9935C12.7271 19.1173 12.7294 19.2455 12.76 19.3683L13.1767 21.035C13.2144 21.1868 13.2942 21.3249 13.4068 21.4335C13.5194 21.5421 13.6603 21.6169 13.8133 21.6492L13.345 24.9258L10.8 18.2192L10.7833 18.1833C10.6604 17.9309 10.4549 17.7279 10.2009 17.6081C9.94699 17.4882 9.65973 17.4586 9.38667 17.5242C9.1025 17.5933 8.78917 17.6658 8.45833 17.7442C7.6775 17.9267 6.79667 18.1325 5.96167 18.365C4.78417 18.6933 3.56417 19.1067 2.71667 19.6633C1.15583 20.6883 0 22.0442 0 23.75V30H30V23.75C30 22.0442 28.845 20.6875 27.2833 19.6633C26.4367 19.1067 25.2167 18.6933 24.0392 18.365C23.2113 18.1409 22.3789 17.934 21.5425 17.7442C21.2327 17.6722 20.9233 17.5989 20.6142 17.5242C20.3412 17.4588 20.0542 17.4885 19.8004 17.6084C19.5466 17.7282 19.3413 17.931 19.2183 18.1833L19.1958 18.2283ZM21.2033 19.3767L20.6092 19.2367L17.4242 28.3333H28.3333V23.75C28.3333 22.8783 27.7467 21.9608 26.3692 21.0567C25.7575 20.6542 24.7608 20.2958 23.5925 19.9708C22.8006 19.7562 22.0035 19.5581 21.2033 19.3767ZM9.40167 19.2342L12.8542 28.3333H1.66667V23.75C1.66667 22.8783 2.25333 21.9608 3.63083 21.0567C4.2425 20.6542 5.23917 20.2958 6.4075 19.9708C7.19934 19.756 7.99563 19.5579 8.79583 19.3767L9.40167 19.2342Z" fill="#F7B23B"/>
</svg>
