<svg width="32" height="32" viewBox="0 0 32 32" fill="none" xmlns="http://www.w3.org/2000/svg">
<path d="M26.6615 15.3307V9.33073L20.6615 2.66406H6.66146C6.30784 2.66406 5.9687 2.80454 5.71865 3.05459C5.4686 3.30464 5.32813 3.64377 5.32812 3.9974V27.9974C5.32812 28.351 5.4686 28.6902 5.71865 28.9402C5.9687 29.1903 6.30784 29.3307 6.66146 29.3307H13.3281" stroke="#F7B23B" stroke-width="2.66667" stroke-linecap="round" stroke-linejoin="round"/>
<path d="M22.6667 23.9974C24.1394 23.9974 25.3333 22.8035 25.3333 21.3307C25.3333 19.858 24.1394 18.6641 22.6667 18.6641C21.1939 18.6641 20 19.858 20 21.3307C20 22.8035 21.1939 23.9974 22.6667 23.9974Z" stroke="#F7B23B" stroke-width="2.66667" stroke-linecap="round" stroke-linejoin="round"/>
<path d="M27.9948 29.3307C27.9948 27.9162 27.4329 26.5597 26.4327 25.5595C25.4325 24.5593 24.0759 23.9974 22.6615 23.9974C21.247 23.9974 19.8904 24.5593 18.8902 25.5595C17.89 26.5597 17.3281 27.9162 17.3281 29.3307M19.9948 2.66406V9.33073H26.6615" stroke="#F7B23B" stroke-width="2.66667" stroke-linecap="round" stroke-linejoin="round"/>
</svg>
