<svg width="12" height="12" viewBox="0 0 12 12" fill="none" xmlns="http://www.w3.org/2000/svg">
<path d="M3 9.99845C2.725 9.99845 2.48967 9.90061 2.294 9.70495C2.09833 9.50928 2.00033 9.27378 2 8.99845V7.99845C2 7.85678 2.048 7.73811 2.144 7.64245C2.24 7.54678 2.35867 7.49878 2.5 7.49845C2.64133 7.49811 2.76017 7.54611 2.8565 7.64245C2.95283 7.73878 3.00067 7.85745 3 7.99845V8.99845H9V7.99845C9 7.85678 9.048 7.73811 9.144 7.64245C9.24 7.54678 9.35867 7.49878 9.5 7.49845C9.64133 7.49811 9.76017 7.54611 9.8565 7.64245C9.95283 7.73878 10.0007 7.85745 10 7.99845V8.99845C10 9.27345 9.90217 9.50894 9.7065 9.70495C9.51083 9.90095 9.27533 9.99878 9 9.99845H3ZM5.5 3.92345L4.5625 4.86095C4.4625 4.96095 4.34383 5.00894 4.2065 5.00494C4.06917 5.00094 3.95033 4.94878 3.85 4.84844C3.75833 4.74845 3.71033 4.63178 3.706 4.49845C3.70167 4.36511 3.74967 4.24845 3.85 4.14845L5.65 2.34844C5.7 2.29845 5.75417 2.26311 5.8125 2.24245C5.87083 2.22178 5.93333 2.21128 6 2.21095C6.06667 2.21061 6.12917 2.22111 6.1875 2.24245C6.24583 2.26378 6.3 2.29911 6.35 2.34844L8.15 4.14845C8.25 4.24845 8.298 4.36511 8.294 4.49845C8.29 4.63178 8.242 4.74845 8.15 4.84844C8.05 4.94844 7.93133 5.00061 7.794 5.00494C7.65667 5.00928 7.53783 4.96128 7.4375 4.86095L6.5 3.92345V7.49845C6.5 7.64011 6.452 7.75894 6.356 7.85495C6.26 7.95095 6.14133 7.99878 6 7.99845C5.85867 7.99811 5.74 7.95011 5.644 7.85444C5.548 7.75878 5.5 7.64011 5.5 7.49845V3.92345Z" fill="#C6C6C6"/>
</svg>
